<?xml version="1.0" encoding="iso-8859-1"?>
<!-- Uploaded to: SVG Repo, www.svgrepo.com, Generator: SVG Repo Mixer Tools -->
<!DOCTYPE svg PUBLIC "-//W3C//DTD SVG 1.1//EN" "http://www.w3.org/Graphics/SVG/1.1/DTD/svg11.dtd">
<svg fill="#000000" version="1.1" id="Capa_1" xmlns="http://www.w3.org/2000/svg" xmlns:xlink="http://www.w3.org/1999/xlink" 
	 width="800px" height="800px" viewBox="0 0 94 94" xml:space="preserve">
<g>
	<path d="M89,0H5C2.239,0,0,2.239,0,5v84c0,2.761,2.239,5,5,5h84c2.762,0,5-2.239,5-5V5C94,2.239,91.762,0,89,0z M85.26,38.892
		c-7.461,5.415-14.912,10.84-22.396,16.219c-0.752,0.541-0.897,0.972-0.606,1.854c2.906,8.791,5.761,17.6,8.627,26.404
		c0.082,0.251,0.153,0.504,0.296,0.968c-0.464-0.321-0.756-0.519-1.039-0.726c-7.402-5.389-14.813-10.771-22.197-16.185
		c-0.694-0.51-1.154-0.553-1.882-0.021c-7.601,5.53-15.231,11.021-22.855,16.521c-0.188,0.137-0.388,0.256-0.728,0.479
		c1.093-3.375,2.124-6.584,3.166-9.789c1.956-6.025,3.904-12.055,5.893-18.067c0.231-0.696,0.04-1.021-0.51-1.417
		c-7.506-5.402-14.995-10.83-22.488-16.25c-0.243-0.177-0.486-0.354-0.713-0.741c0.68,0,1.358,0,2.038,0
		c8.824,0,17.65-0.013,26.476,0.021c0.88,0.003,1.254-0.254,1.527-1.109c2.854-8.906,5.756-17.795,8.646-26.688
		c0.065-0.201,0.152-0.394,0.297-0.763c0.152,0.388,0.267,0.643,0.353,0.905c2.933,8.847,5.876,17.69,8.771,26.551
		c0.276,0.85,0.659,1.106,1.539,1.104c9.19-0.023,18.383,0.001,27.573,0.011c0.297,0,0.595,0,1.13,0
		C85.755,38.501,85.516,38.707,85.26,38.892z"/>
</g>
</svg>